:SAMPLES-PER-SECOND 25
:FULLY-SPECIFIED
:DEGREES
148
root  5.69896 74.7972 -31.5837 -1.44009 -11.6675 2.18826
RightUpLeg  -7.41643 -6.97959 -5.59033
RightLeg  49.6642 -4.16468 -5.59534
RightFoot  -1.77085 -0.488447 5.71604
RightToes  2.84633e-005 7.89722e-005 -0.000426369
Spine  1.21312 1.52981 -2.2016
Spine1  2.20432 2.52979 -1.11046
HEad  43.6056 2.06296 -10.574
LeftShoulder1  -3.88251e-019 0 -3.92111e-022
LeftArm  -37.1675 11.7868 -78.8307
LeftForeArm  22.1453 2.15317 2.20815
LeftHand  -0.615639 -4.47697 7.5288
RightShoulder  7.45443e-017 -2.42657e-020 1.96277e-018
RightArm  -26.2657 -13.0002 73.1165
RightForeArm  27.0829 7.53174 5.71675
RightHand  -1.18024 9.37038 -9.60876
LeftUpLeg  -10.0719 -0.00987306 -6.41829
LeftLeg  15.9001 9.56675 2.55635
LeftFoot  -3.78494 -0.241032 4.00061
LeftToes  3.91355e-005 3.11907e-005 -4.10385e-006
149
root  5.72102 74.6669 -30.8473 -2.35769 -9.98579 2.45932
RightUpLeg  -11.8739 -6.2011 -5.28887
RightLeg  56.8386 -4.33723 -7.53055
RightFoot  -1.01297 -0.173229 1.73015
RightToes  2.84633e-005 7.89722e-005 -0.000426369
Spine  1.65552 0.925381 -2.49971
Spine1  3.0923 1.23274 -1.19187
HEad  43.0448 1.48739 -11.1569
LeftShoulder1  -3.88251e-019 0 -3.92111e-022
LeftArm  -36.5339 9.5067 -78.6408
LeftForeArm  22.4673 2.14586 2.05657
LeftHand  -0.657985 -4.64614 7.90042
RightShoulder  7.45443e-017 -2.42657e-020 1.96277e-018
RightArm  -26.3838 -12.8425 72.9828
RightForeArm  25.0326 7.65917 5.51078
RightHand  -1.33209 9.89877 -10.4657
LeftUpLeg  -8.49601 0.0435629 -7.19555
LeftLeg  17.126 8.23009 2.48856
LeftFoot  -5.58609 -0.172383 4.09793
LeftToes  3.91355e-005 3.11907e-005 -4.10385e-006
150
root  5.70059 74.6592 -30.0302 -2.96023 -8.65258 2.34728
RightUpLeg  -15.3837 -4.51147 -4.19132
RightLeg  58.4053 -3.02277 -5.74246
RightFoot  -2.85333 -0.0465783 0.362438
RightToes  2.84633e-005 7.89722e-005 -0.000426369
Spine  2.03861 0.656011 -2.60013
Spine1  3.90952 0.705044 -1.07192
HEad  42.6723 0.726658 -11.3426
LeftShoulder1  -3.88251e-019 0 -3.92111e-022
LeftArm  -35.7339 6.04241 -78.8086
LeftForeArm  24.1047 2.09735 2.47382
LeftHand  -0.677156 -4.91421 7.92009
RightShoulder  7.45443e-017 -2.42657e-020 1.96277e-018
RightArm  -26.327 -13.0906 72.5837
RightForeArm  23.3631 8.24243 5.96101
RightHand  -1.46743 9.82273 -11.5329
LeftUpLeg  -6.37262 -0.159388 -7.40127
LeftLeg  16.9972 7.47974 2.268
LeftFoot  -6.68606 -0.125705 4.07813
LeftToes  3.91355e-005 3.11907e-005 -4.10385e-006
151
root  5.64434 74.6513 -29.287 -2.71193 -6.34001 1.90727
RightUpLeg  -19.0337 -3.47193 -2.75389
RightLeg  56.0455 -1.89772 -3.45915
RightFoot  -4.45332 -0.0180427 -0.202675
RightToes  2.84633e-005 7.89722e-005 -0.000426369
Spine  1.98587 -0.0493901 -2.35614
Spine1  3.88762 -0.527243 -0.724273
HEad  42.4688 0.174288 -11.2224
LeftShoulder1  -3.88251e-019 0 -3.92111e-022
LeftArm  -35.2246 3.86329 -79.0022
LeftForeArm  24.9172 2.10354 1.74767
LeftHand  -0.699879 -4.44729 8.53755
RightShoulder  7.45443e-017 -2.42657e-020 1.96277e-018
RightArm  -26.5988 -13.7458 72.4851
RightForeArm  23.6588 8.71224 5.36728
RightHand  -1.22554 9.50156 -9.90135
LeftUpLeg  -5.49808 0.28271 -7.05344
LeftLeg  17.4137 5.02796 1.58961
LeftFoot  -7.90962 -0.0810209 4.29302
LeftToes  3.91355e-005 3.11907e-005 -4.10385e-006
152
root  5.56446 74.7152 -28.5924 -2.3544 -3.15057 0.971163
RightUpLeg  -21.4255 -3.11448 -1.07621
RightLeg  49.6644 -2.94405 -4.02422
RightFoot  -6.52197 -0.0263428 -0.42736
RightToes  2.84633e-005 7.89722e-005 -0.000426369
Spine  1.94103 -0.874854 -1.79842
Spine1  3.88149 -1.95403 -0.194769
HEad  42.3454 -1.90699 -11.0721
LeftShoulder1  -3.88251e-019 0 -3.92111e-022
LeftArm  -34.3296 1.82997 -79.7673
LeftForeArm  24.868 2.10971 1.71597
LeftHand  -0.780712 -4.34161 9.58751
RightShoulder  7.45443e-017 -2.42657e-020 1.96277e-018
RightArm  -27.2294 -14.4725 71.9886
RightForeArm  22.9272 8.87425 5.70312
RightHand  -1.28164 9.52228 -10.3209
LeftUpLeg  -4.61621 0.351818 -6.08749
LeftLeg  17.4866 1.9689 0.754438
LeftFoot  -8.70347 -0.063438 5.02002
LeftToes  3.91355e-005 3.11907e-005 -4.10385e-006
153
root  5.47847 74.8705 -27.9489 -1.91217 -0.778816 -0.114195
RightUpLeg  -22.7198 -3.73482 0.457278
RightLeg  39.9156 -6.90007 -6.36815
RightFoot  -6.7587 -0.0106338 -0.824579
RightToes  2.84633e-005 7.89722e-005 -0.000426369
Spine  2.01252 -1.40537 -0.863842
Spine1  4.07812 -2.82488 0.724292
HEad  41.036 -3.81285 -11.1333
LeftShoulder1  -3.88251e-019 0 -3.92111e-022
LeftArm  -33.824 -0.448076 -80.907
LeftForeArm  25.364 2.112 1.64165
LeftHand  -0.848895 -5.05649 9.72085
RightShoulder  7.45443e-017 -2.42657e-020 1.96277e-018
RightArm  -27.7157 -14.8691 71.4803
RightForeArm  22.0238 8.96177 5.43275
RightHand  -1.29359 9.57012 -10.382
LeftUpLeg  -3.54334 0.177553 -4.77412
LeftLeg  16.5847 -0.193559 0.152004
LeftFoot  -8.91967 -0.0602685 5.3822
LeftToes  3.91355e-005 3.11907e-005 -4.10385e-006
154
root  5.39557 74.9888 -27.2994 -1.523 1.54115 -0.765982
RightUpLeg  -22.5243 -5.80772 1.60574
RightLeg  28.1122 -12.2865 -7.33973
RightFoot  -3.27225 0.0558573 -1.13868
RightToes  2.84633e-005 7.89722e-005 -0.000426369
Spine  2.19156 -1.81914 0.1814
Spine1  4.43002 -3.58182 1.63704
HEad  40.1282 -5.96862 -11.7182
LeftShoulder1  -3.88251e-019 0 -3.92111e-022
LeftArm  -33.0166 -2.69219 -82.4593
LeftForeArm  25.7778 2.16076 0.921171
LeftHand  -0.958437 -5.04845 10.9326
RightShoulder  7.45443e-017 -2.42657e-020 1.96277e-018
RightArm  -27.905 -14.9265 70.5738
RightForeArm  21.7079 8.78646 5.07246
RightHand  -1.40646 9.63209 -11.2087
LeftUpLeg  -2.35032 0.00128565 -3.85465
LeftLeg  15.369 -2.20532 -0.383724
LeftFoot  -8.90531 -0.0641285 5.53038
LeftToes  3.91355e-005 3.11907e-005 -4.10385e-006
155
root  5.30262 75.0101 -26.5736 -0.826905 2.97049 -0.760316
RightUpLeg  -21.649 -6.371 1.71563
RightLeg  16.3915 -16.8056 -4.64771
RightFoot  0.678838 0.140863 -1.28919
RightToes  2.84633e-005 7.89722e-005 -0.000426369
Spine  2.16559 -1.91638 0.858168
Spine1  4.32751 -3.80409 1.81828
HEad  39.9943 -8.25581 -11.6225
LeftShoulder1  -3.88251e-019 0 -3.92111e-022
LeftArm  -32.2302 -4.38682 -83.7863
LeftForeArm  26.88 2.10378 0.768839
LeftHand  -0.980929 -5.38536 10.8572
RightShoulder  7.45443e-017 -2.42657e-020 1.96277e-018
RightArm  -28.1877 -15.4797 70.1283
RightForeArm  20.6089 8.94947 4.82612
RightHand  -1.20244 9.05444 -9.99262
LeftUpLeg  -1.53729 0.542039 -3.41526
LeftLeg  14.588 -4.12362 -0.996816
LeftFoot  -9.1886 -0.0543818 5.85373
LeftToes  3.91355e-005 3.11907e-005 -4.10385e-006
156
root  5.19494 74.9519 -25.7333 -0.281114 3.4974 -0.529103
RightUpLeg  -20.3043 -1.26437 -0.232133
RightLeg  7.7894 -26.9256 -1.11002
RightFoot  1.97263 0.244405 -1.97743
RightToes  2.84633e-005 7.89722e-005 -0.000426369
Spine  2.16402 -1.96623 1.32471
Spine1  4.26658 -3.94895 1.89436
HEad  40.0109 -8.89862 -11.9647
LeftShoulder1  -3.88251e-019 0 -3.92111e-022
LeftArm  -31.7438 -5.00655 -84.7536
LeftForeArm  26.9917 1.51583 0.0622731
LeftHand  -0.853272 -5.60204 9.31331
RightShoulder  7.45443e-017 -2.42657e-020 1.96277e-018
RightArm  -28.4773 -15.5253 70.0476
RightForeArm  20.3594 8.91213 4.6218
RightHand  -1.26111 9.35525 -10.2708
LeftUpLeg  -0.568517 1.09079 -3.16693
LeftLeg  14.4191 -5.44937 -1.4341
LeftFoot  -10.1322 0.00408104 5.38969
LeftToes  3.91355e-005 3.11907e-005 -4.10385e-006
